<mxfile host="Electron" agent="Mozilla/5.0 (X11; Linux x86_64) AppleWebKit/537.36 (KHTML, like Gecko) draw.io/25.0.1 Chrome/128.0.6613.186 Electron/32.2.6 Safari/537.36" version="25.0.1" pages="2">
  <diagram name="uc1" id="xK43Y889W-y6p6fC-49S">
    <mxGraphModel dx="1434" dy="904" grid="1" gridSize="10" guides="1" tooltips="1" connect="1" arrows="1" fold="1" page="1" pageScale="1" pageWidth="1654" pageHeight="1169" math="0" shadow="0">
      <root>
        <mxCell id="0" />
        <mxCell id="1" parent="0" />
        <mxCell id="QTBJoDsRQrFREH0yK5H--80" value="1. Create unique data model" style="html=1;align=left;spacingLeft=2;endArrow=block;rounded=0;edgeStyle=orthogonalEdgeStyle;curved=0;rounded=0;fillColor=#e51400;strokeColor=#ff0000;" edge="1" parent="1">
          <mxGeometry relative="1" as="geometry">
            <mxPoint x="890" y="830" as="sourcePoint" />
            <Array as="points">
              <mxPoint x="920" y="860" />
            </Array>
            <mxPoint x="895" y="860" as="targetPoint" />
          </mxGeometry>
        </mxCell>
        <mxCell id="QTBJoDsRQrFREH0yK5H--1" value=":LMS" style="shape=umlLifeline;perimeter=lifelinePerimeter;whiteSpace=wrap;html=1;container=1;dropTarget=0;collapsible=0;recursiveResize=0;outlineConnect=0;portConstraint=eastwest;newEdgeStyle={&quot;curved&quot;:0,&quot;rounded&quot;:0};" vertex="1" parent="1">
          <mxGeometry x="160" y="160" width="100" height="400" as="geometry" />
        </mxCell>
        <mxCell id="QTBJoDsRQrFREH0yK5H--8" value="" style="html=1;points=[[0,0,0,0,5],[0,1,0,0,-5],[1,0,0,0,5],[1,1,0,0,-5]];perimeter=orthogonalPerimeter;outlineConnect=0;targetShapes=umlLifeline;portConstraint=eastwest;newEdgeStyle={&quot;curved&quot;:0,&quot;rounded&quot;:0};" vertex="1" parent="QTBJoDsRQrFREH0yK5H--1">
          <mxGeometry x="45" y="70" width="10" height="120" as="geometry" />
        </mxCell>
        <mxCell id="QTBJoDsRQrFREH0yK5H--4" value="Active Agent" style="shape=umlLifeline;perimeter=lifelinePerimeter;whiteSpace=wrap;html=1;container=1;dropTarget=0;collapsible=0;recursiveResize=0;outlineConnect=0;portConstraint=eastwest;newEdgeStyle={&quot;curved&quot;:0,&quot;rounded&quot;:0};participant=umlActor;size=40;movableLabel=1;" vertex="1" parent="1">
          <mxGeometry x="50" y="160" width="20" height="400" as="geometry">
            <mxPoint y="-40" as="offset" />
          </mxGeometry>
        </mxCell>
        <mxCell id="QTBJoDsRQrFREH0yK5H--11" value="" style="html=1;points=[[0,0,0,0,5],[0,1,0,0,-5],[1,0,0,0,5],[1,1,0,0,-5]];perimeter=orthogonalPerimeter;outlineConnect=0;targetShapes=umlLifeline;portConstraint=eastwest;newEdgeStyle={&quot;curved&quot;:0,&quot;rounded&quot;:0};" vertex="1" parent="QTBJoDsRQrFREH0yK5H--4">
          <mxGeometry x="5" y="60" width="10" height="320" as="geometry" />
        </mxCell>
        <mxCell id="QTBJoDsRQrFREH0yK5H--5" value=":Activity Controller" style="shape=umlLifeline;perimeter=lifelinePerimeter;whiteSpace=wrap;html=1;container=1;dropTarget=0;collapsible=0;recursiveResize=0;outlineConnect=0;portConstraint=eastwest;newEdgeStyle={&quot;curved&quot;:0,&quot;rounded&quot;:0};" vertex="1" parent="1">
          <mxGeometry x="480" y="160" width="100" height="400" as="geometry" />
        </mxCell>
        <mxCell id="QTBJoDsRQrFREH0yK5H--17" value="" style="html=1;points=[[0,0,0,0,5],[0,1,0,0,-5],[1,0,0,0,5],[1,1,0,0,-5]];perimeter=orthogonalPerimeter;outlineConnect=0;targetShapes=umlLifeline;portConstraint=eastwest;newEdgeStyle={&quot;curved&quot;:0,&quot;rounded&quot;:0};" vertex="1" parent="QTBJoDsRQrFREH0yK5H--5">
          <mxGeometry x="45" y="92" width="10" height="78" as="geometry" />
        </mxCell>
        <mxCell id="QTBJoDsRQrFREH0yK5H--29" value="" style="html=1;points=[[0,0,0,0,5],[0,1,0,0,-5],[1,0,0,0,5],[1,1,0,0,-5]];perimeter=orthogonalPerimeter;outlineConnect=0;targetShapes=umlLifeline;portConstraint=eastwest;newEdgeStyle={&quot;curved&quot;:0,&quot;rounded&quot;:0};" vertex="1" parent="QTBJoDsRQrFREH0yK5H--5">
          <mxGeometry x="45" y="210" width="10" height="30" as="geometry" />
        </mxCell>
        <mxCell id="QTBJoDsRQrFREH0yK5H--32" value="" style="html=1;points=[[0,0,0,0,5],[0,1,0,0,-5],[1,0,0,0,5],[1,1,0,0,-5]];perimeter=orthogonalPerimeter;outlineConnect=0;targetShapes=umlLifeline;portConstraint=eastwest;newEdgeStyle={&quot;curved&quot;:0,&quot;rounded&quot;:0};" vertex="1" parent="QTBJoDsRQrFREH0yK5H--5">
          <mxGeometry x="45" y="259" width="10" height="121" as="geometry" />
        </mxCell>
        <mxCell id="QTBJoDsRQrFREH0yK5H--6" value=":Activity Service" style="shape=umlLifeline;perimeter=lifelinePerimeter;whiteSpace=wrap;html=1;container=1;dropTarget=0;collapsible=0;recursiveResize=0;outlineConnect=0;portConstraint=eastwest;newEdgeStyle={&quot;curved&quot;:0,&quot;rounded&quot;:0};" vertex="1" parent="1">
          <mxGeometry x="600" y="160" width="100" height="400" as="geometry" />
        </mxCell>
        <mxCell id="QTBJoDsRQrFREH0yK5H--26" value="" style="html=1;points=[[0,0,0,0,5],[0,1,0,0,-5],[1,0,0,0,5],[1,1,0,0,-5]];perimeter=orthogonalPerimeter;outlineConnect=0;targetShapes=umlLifeline;portConstraint=eastwest;newEdgeStyle={&quot;curved&quot;:0,&quot;rounded&quot;:0};" vertex="1" parent="QTBJoDsRQrFREH0yK5H--6">
          <mxGeometry x="45" y="107" width="10" height="50" as="geometry" />
        </mxCell>
        <mxCell id="QTBJoDsRQrFREH0yK5H--35" value="" style="html=1;points=[[0,0,0,0,5],[0,1,0,0,-5],[1,0,0,0,5],[1,1,0,0,-5]];perimeter=orthogonalPerimeter;outlineConnect=0;targetShapes=umlLifeline;portConstraint=eastwest;newEdgeStyle={&quot;curved&quot;:0,&quot;rounded&quot;:0};" vertex="1" parent="QTBJoDsRQrFREH0yK5H--6">
          <mxGeometry x="45" y="270" width="10" height="100" as="geometry" />
        </mxCell>
        <mxCell id="QTBJoDsRQrFREH0yK5H--7" value=":Database" style="shape=umlLifeline;perimeter=lifelinePerimeter;whiteSpace=wrap;html=1;container=1;dropTarget=0;collapsible=0;recursiveResize=0;outlineConnect=0;portConstraint=eastwest;newEdgeStyle={&quot;curved&quot;:0,&quot;rounded&quot;:0};" vertex="1" parent="1">
          <mxGeometry x="961" y="160" width="100" height="920" as="geometry" />
        </mxCell>
        <mxCell id="QTBJoDsRQrFREH0yK5H--23" value="" style="html=1;points=[[0,0,0,0,5],[0,1,0,0,-5],[1,0,0,0,5],[1,1,0,0,-5]];perimeter=orthogonalPerimeter;outlineConnect=0;targetShapes=umlLifeline;portConstraint=eastwest;newEdgeStyle={&quot;curved&quot;:0,&quot;rounded&quot;:0};" vertex="1" parent="QTBJoDsRQrFREH0yK5H--7">
          <mxGeometry x="45" y="117" width="10" height="30" as="geometry" />
        </mxCell>
        <mxCell id="QTBJoDsRQrFREH0yK5H--40" value="" style="html=1;points=[[0,0,0,0,5],[0,1,0,0,-5],[1,0,0,0,5],[1,1,0,0,-5]];perimeter=orthogonalPerimeter;outlineConnect=0;targetShapes=umlLifeline;portConstraint=eastwest;newEdgeStyle={&quot;curved&quot;:0,&quot;rounded&quot;:0};" vertex="1" parent="QTBJoDsRQrFREH0yK5H--7">
          <mxGeometry x="45" y="280" width="10" height="30" as="geometry" />
        </mxCell>
        <mxCell id="QTBJoDsRQrFREH0yK5H--9" value="Access Course" style="html=1;verticalAlign=bottom;endArrow=block;curved=0;rounded=0;entryX=0;entryY=0;entryDx=0;entryDy=5;" edge="1" target="QTBJoDsRQrFREH0yK5H--8" parent="1" source="QTBJoDsRQrFREH0yK5H--11">
          <mxGeometry relative="1" as="geometry">
            <mxPoint x="135" y="225" as="sourcePoint" />
          </mxGeometry>
        </mxCell>
        <mxCell id="QTBJoDsRQrFREH0yK5H--10" value="Redirect Activity" style="html=1;verticalAlign=bottom;endArrow=open;dashed=1;endSize=8;curved=0;rounded=0;exitX=0;exitY=1;exitDx=0;exitDy=-5;" edge="1" source="QTBJoDsRQrFREH0yK5H--8" parent="1" target="QTBJoDsRQrFREH0yK5H--11">
          <mxGeometry relative="1" as="geometry">
            <mxPoint x="135" y="295" as="targetPoint" />
          </mxGeometry>
        </mxCell>
        <mxCell id="QTBJoDsRQrFREH0yK5H--12" value=":Inven!RA" style="shape=umlLifeline;perimeter=lifelinePerimeter;whiteSpace=wrap;html=1;container=1;dropTarget=0;collapsible=0;recursiveResize=0;outlineConnect=0;portConstraint=eastwest;newEdgeStyle={&quot;curved&quot;:0,&quot;rounded&quot;:0};" vertex="1" parent="1">
          <mxGeometry x="320" y="160" width="100" height="400" as="geometry" />
        </mxCell>
        <mxCell id="QTBJoDsRQrFREH0yK5H--14" value="" style="html=1;points=[[0,0,0,0,5],[0,1,0,0,-5],[1,0,0,0,5],[1,1,0,0,-5]];perimeter=orthogonalPerimeter;outlineConnect=0;targetShapes=umlLifeline;portConstraint=eastwest;newEdgeStyle={&quot;curved&quot;:0,&quot;rounded&quot;:0};" vertex="1" parent="QTBJoDsRQrFREH0yK5H--12">
          <mxGeometry x="45" y="90" width="10" height="90" as="geometry" />
        </mxCell>
        <mxCell id="QTBJoDsRQrFREH0yK5H--18" value="Provide Activity" style="html=1;verticalAlign=bottom;endArrow=block;curved=0;rounded=0;entryX=0;entryY=0;entryDx=0;entryDy=5;" edge="1" parent="1">
          <mxGeometry x="0.0049" relative="1" as="geometry">
            <mxPoint x="375" y="262" as="sourcePoint" />
            <mxPoint x="525" y="262" as="targetPoint" />
            <mxPoint as="offset" />
          </mxGeometry>
        </mxCell>
        <mxCell id="QTBJoDsRQrFREH0yK5H--19" value="DeployUrl" style="html=1;verticalAlign=bottom;endArrow=open;dashed=1;endSize=8;curved=0;rounded=0;exitX=0;exitY=1;exitDx=0;exitDy=-5;" edge="1" source="QTBJoDsRQrFREH0yK5H--17" parent="1" target="QTBJoDsRQrFREH0yK5H--14">
          <mxGeometry relative="1" as="geometry">
            <mxPoint x="450" y="295" as="targetPoint" />
          </mxGeometry>
        </mxCell>
        <mxCell id="QTBJoDsRQrFREH0yK5H--15" value="Access Activity" style="html=1;verticalAlign=bottom;endArrow=block;curved=0;rounded=0;entryX=0;entryY=0;entryDx=0;entryDy=5;" edge="1" target="QTBJoDsRQrFREH0yK5H--14" parent="1" source="QTBJoDsRQrFREH0yK5H--8">
          <mxGeometry relative="1" as="geometry">
            <mxPoint x="295" y="235" as="sourcePoint" />
          </mxGeometry>
        </mxCell>
        <mxCell id="QTBJoDsRQrFREH0yK5H--16" value="Redirect Activity" style="html=1;verticalAlign=bottom;endArrow=open;dashed=1;endSize=8;curved=0;rounded=0;exitX=0;exitY=1;exitDx=0;exitDy=-5;" edge="1" source="QTBJoDsRQrFREH0yK5H--14" parent="1" target="QTBJoDsRQrFREH0yK5H--8">
          <mxGeometry relative="1" as="geometry">
            <mxPoint x="295" y="305" as="targetPoint" />
          </mxGeometry>
        </mxCell>
        <mxCell id="QTBJoDsRQrFREH0yK5H--24" value="Save Activity" style="html=1;verticalAlign=bottom;endArrow=block;curved=0;rounded=0;entryX=0;entryY=0;entryDx=0;entryDy=5;" edge="1" target="QTBJoDsRQrFREH0yK5H--23" parent="1" source="QTBJoDsRQrFREH0yK5H--26">
          <mxGeometry x="-0.0028" y="2" relative="1" as="geometry">
            <mxPoint x="695" y="282" as="sourcePoint" />
            <mxPoint as="offset" />
          </mxGeometry>
        </mxCell>
        <mxCell id="QTBJoDsRQrFREH0yK5H--25" value="Activity Instance" style="html=1;verticalAlign=bottom;endArrow=open;dashed=1;endSize=8;curved=0;rounded=0;exitX=0;exitY=1;exitDx=0;exitDy=-5;" edge="1" source="QTBJoDsRQrFREH0yK5H--23" parent="1" target="QTBJoDsRQrFREH0yK5H--26">
          <mxGeometry x="0.0028" y="-2" relative="1" as="geometry">
            <mxPoint x="695" y="352" as="targetPoint" />
            <mxPoint as="offset" />
          </mxGeometry>
        </mxCell>
        <mxCell id="QTBJoDsRQrFREH0yK5H--27" value="Create Activity" style="html=1;verticalAlign=bottom;endArrow=block;curved=0;rounded=0;entryX=0;entryY=0;entryDx=0;entryDy=5;" edge="1" target="QTBJoDsRQrFREH0yK5H--26" parent="1" source="QTBJoDsRQrFREH0yK5H--17">
          <mxGeometry relative="1" as="geometry">
            <mxPoint x="575" y="272" as="sourcePoint" />
          </mxGeometry>
        </mxCell>
        <mxCell id="QTBJoDsRQrFREH0yK5H--28" value="Activity Instance" style="html=1;verticalAlign=bottom;endArrow=open;dashed=1;endSize=8;curved=0;rounded=0;exitX=0;exitY=1;exitDx=0;exitDy=-5;" edge="1" source="QTBJoDsRQrFREH0yK5H--26" parent="1" target="QTBJoDsRQrFREH0yK5H--17">
          <mxGeometry relative="1" as="geometry">
            <mxPoint x="575" y="342" as="targetPoint" />
          </mxGeometry>
        </mxCell>
        <mxCell id="QTBJoDsRQrFREH0yK5H--30" value="Access Activity Page" style="html=1;verticalAlign=bottom;endArrow=block;curved=0;rounded=0;entryX=0;entryY=0;entryDx=0;entryDy=5;" edge="1" target="QTBJoDsRQrFREH0yK5H--29" parent="1" source="QTBJoDsRQrFREH0yK5H--11">
          <mxGeometry relative="1" as="geometry">
            <mxPoint x="455" y="385" as="sourcePoint" />
          </mxGeometry>
        </mxCell>
        <mxCell id="QTBJoDsRQrFREH0yK5H--31" value="Activity Page" style="html=1;verticalAlign=bottom;endArrow=open;dashed=1;endSize=8;curved=0;rounded=0;exitX=0;exitY=1;exitDx=0;exitDy=-5;" edge="1" source="QTBJoDsRQrFREH0yK5H--29" parent="1" target="QTBJoDsRQrFREH0yK5H--11">
          <mxGeometry relative="1" as="geometry">
            <mxPoint x="455" y="455" as="targetPoint" />
          </mxGeometry>
        </mxCell>
        <mxCell id="QTBJoDsRQrFREH0yK5H--33" value="Set Activity Repository" style="html=1;verticalAlign=bottom;endArrow=block;curved=0;rounded=0;entryX=0;entryY=0;entryDx=0;entryDy=5;" edge="1" target="QTBJoDsRQrFREH0yK5H--32" parent="1" source="QTBJoDsRQrFREH0yK5H--11">
          <mxGeometry relative="1" as="geometry">
            <mxPoint x="455" y="415" as="sourcePoint" />
          </mxGeometry>
        </mxCell>
        <mxCell id="QTBJoDsRQrFREH0yK5H--34" value="Redirect to Repository" style="html=1;verticalAlign=bottom;endArrow=open;dashed=1;endSize=8;curved=0;rounded=0;exitX=0;exitY=1;exitDx=0;exitDy=-5;" edge="1" source="QTBJoDsRQrFREH0yK5H--32" parent="1" target="QTBJoDsRQrFREH0yK5H--11">
          <mxGeometry relative="1" as="geometry">
            <mxPoint x="455" y="485" as="targetPoint" />
          </mxGeometry>
        </mxCell>
        <mxCell id="QTBJoDsRQrFREH0yK5H--38" value=":Analytics Service" style="shape=umlLifeline;perimeter=lifelinePerimeter;whiteSpace=wrap;html=1;container=1;dropTarget=0;collapsible=0;recursiveResize=0;outlineConnect=0;portConstraint=eastwest;newEdgeStyle={&quot;curved&quot;:0,&quot;rounded&quot;:0};" vertex="1" parent="1">
          <mxGeometry x="720" y="160" width="100" height="920" as="geometry" />
        </mxCell>
        <mxCell id="QTBJoDsRQrFREH0yK5H--43" value="" style="html=1;points=[[0,0,0,0,5],[0,1,0,0,-5],[1,0,0,0,5],[1,1,0,0,-5]];perimeter=orthogonalPerimeter;outlineConnect=0;targetShapes=umlLifeline;portConstraint=eastwest;newEdgeStyle={&quot;curved&quot;:0,&quot;rounded&quot;:0};" vertex="1" parent="QTBJoDsRQrFREH0yK5H--38">
          <mxGeometry x="45" y="328" width="10" height="30" as="geometry" />
        </mxCell>
        <mxCell id="QTBJoDsRQrFREH0yK5H--36" value="Save repository URL" style="html=1;verticalAlign=bottom;endArrow=block;curved=0;rounded=0;entryX=0;entryY=0;entryDx=0;entryDy=5;" edge="1" target="QTBJoDsRQrFREH0yK5H--35" parent="1" source="QTBJoDsRQrFREH0yK5H--32">
          <mxGeometry relative="1" as="geometry">
            <mxPoint x="575" y="435" as="sourcePoint" />
          </mxGeometry>
        </mxCell>
        <mxCell id="QTBJoDsRQrFREH0yK5H--37" value="return" style="html=1;verticalAlign=bottom;endArrow=open;dashed=1;endSize=8;curved=0;rounded=0;exitX=0;exitY=1;exitDx=0;exitDy=-5;" edge="1" source="QTBJoDsRQrFREH0yK5H--35" parent="1" target="QTBJoDsRQrFREH0yK5H--32">
          <mxGeometry relative="1" as="geometry">
            <mxPoint x="575" y="505" as="targetPoint" />
          </mxGeometry>
        </mxCell>
        <mxCell id="QTBJoDsRQrFREH0yK5H--41" value="Save repository URL" style="html=1;verticalAlign=bottom;endArrow=block;curved=0;rounded=0;entryX=0;entryY=0;entryDx=0;entryDy=5;" edge="1" target="QTBJoDsRQrFREH0yK5H--40" parent="1" source="QTBJoDsRQrFREH0yK5H--35">
          <mxGeometry relative="1" as="geometry">
            <mxPoint x="814" y="445" as="sourcePoint" />
          </mxGeometry>
        </mxCell>
        <mxCell id="QTBJoDsRQrFREH0yK5H--42" value="return" style="html=1;verticalAlign=bottom;endArrow=open;dashed=1;endSize=8;curved=0;rounded=0;exitX=0;exitY=1;exitDx=0;exitDy=-5;" edge="1" source="QTBJoDsRQrFREH0yK5H--40" parent="1" target="QTBJoDsRQrFREH0yK5H--35">
          <mxGeometry relative="1" as="geometry">
            <mxPoint x="814" y="515" as="targetPoint" />
          </mxGeometry>
        </mxCell>
        <mxCell id="QTBJoDsRQrFREH0yK5H--44" value="Start Collection" style="html=1;verticalAlign=bottom;endArrow=block;curved=0;rounded=0;entryX=0;entryY=0;entryDx=0;entryDy=5;" edge="1" target="QTBJoDsRQrFREH0yK5H--43" parent="1" source="QTBJoDsRQrFREH0yK5H--35">
          <mxGeometry relative="1" as="geometry">
            <mxPoint x="695" y="475" as="sourcePoint" />
          </mxGeometry>
        </mxCell>
        <mxCell id="QTBJoDsRQrFREH0yK5H--45" value="return" style="html=1;verticalAlign=bottom;endArrow=open;dashed=1;endSize=8;curved=0;rounded=0;exitX=0;exitY=1;exitDx=0;exitDy=-5;" edge="1" source="QTBJoDsRQrFREH0yK5H--43" parent="1" target="QTBJoDsRQrFREH0yK5H--35">
          <mxGeometry relative="1" as="geometry">
            <mxPoint x="695" y="545" as="targetPoint" />
          </mxGeometry>
        </mxCell>
        <mxCell id="QTBJoDsRQrFREH0yK5H--46" value=":Git Service" style="shape=umlLifeline;perimeter=lifelinePerimeter;whiteSpace=wrap;html=1;container=1;dropTarget=0;collapsible=0;recursiveResize=0;outlineConnect=0;portConstraint=eastwest;newEdgeStyle={&quot;curved&quot;:0,&quot;rounded&quot;:0};" vertex="1" parent="1">
          <mxGeometry x="840" y="160" width="100" height="920" as="geometry" />
        </mxCell>
        <mxCell id="QTBJoDsRQrFREH0yK5H--48" value=":GitHub" style="shape=umlLifeline;perimeter=lifelinePerimeter;whiteSpace=wrap;html=1;container=1;dropTarget=0;collapsible=0;recursiveResize=0;outlineConnect=0;portConstraint=eastwest;newEdgeStyle={&quot;curved&quot;:0,&quot;rounded&quot;:0};" vertex="1" parent="1">
          <mxGeometry x="1120" y="160" width="100" height="920" as="geometry" />
        </mxCell>
        <mxCell id="QTBJoDsRQrFREH0yK5H--56" value="" style="html=1;points=[[0,0,0,0,5],[0,1,0,0,-5],[1,0,0,0,5],[1,1,0,0,-5]];perimeter=orthogonalPerimeter;outlineConnect=0;targetShapes=umlLifeline;portConstraint=eastwest;newEdgeStyle={&quot;curved&quot;:0,&quot;rounded&quot;:0};" vertex="1" parent="QTBJoDsRQrFREH0yK5H--48">
          <mxGeometry x="45" y="470" width="10" height="20" as="geometry" />
        </mxCell>
        <mxCell id="QTBJoDsRQrFREH0yK5H--49" value="Periodic Collection Loop" style="shape=umlFrame;whiteSpace=wrap;html=1;pointerEvents=0;width=93;height=40;" vertex="1" parent="1">
          <mxGeometry x="670" y="560" width="523" height="480" as="geometry" />
        </mxCell>
        <mxCell id="QTBJoDsRQrFREH0yK5H--51" value="Get Analytics" style="html=1;verticalAlign=bottom;endArrow=block;curved=0;rounded=0;entryX=0;entryY=0;entryDx=0;entryDy=5;" edge="1" target="QTBJoDsRQrFREH0yK5H--50" parent="1" source="QTBJoDsRQrFREH0yK5H--53">
          <mxGeometry relative="1" as="geometry">
            <mxPoint x="815" y="625" as="sourcePoint" />
          </mxGeometry>
        </mxCell>
        <mxCell id="QTBJoDsRQrFREH0yK5H--52" value="&lt;span style=&quot;text-align: left;&quot;&gt;GitAnalytics&lt;/span&gt;" style="html=1;verticalAlign=bottom;endArrow=open;dashed=1;endSize=8;curved=0;rounded=0;exitX=0;exitY=1;exitDx=0;exitDy=-5;" edge="1" source="QTBJoDsRQrFREH0yK5H--50" parent="1" target="QTBJoDsRQrFREH0yK5H--53">
          <mxGeometry relative="1" as="geometry">
            <mxPoint x="815" y="695" as="targetPoint" />
          </mxGeometry>
        </mxCell>
        <mxCell id="QTBJoDsRQrFREH0yK5H--50" value="" style="html=1;points=[[0,0,0,0,5],[0,1,0,0,-5],[1,0,0,0,5],[1,1,0,0,-5]];perimeter=orthogonalPerimeter;outlineConnect=0;targetShapes=umlLifeline;portConstraint=eastwest;newEdgeStyle={&quot;curved&quot;:0,&quot;rounded&quot;:0};" vertex="1" parent="1">
          <mxGeometry x="885" y="620" width="10" height="270" as="geometry" />
        </mxCell>
        <mxCell id="QTBJoDsRQrFREH0yK5H--55" value="2. Adapt GitAnalytics" style="html=1;align=left;spacingLeft=2;endArrow=block;rounded=0;edgeStyle=orthogonalEdgeStyle;curved=0;rounded=0;fillColor=#e51400;strokeColor=#ff0000;" edge="1" parent="1">
          <mxGeometry relative="1" as="geometry">
            <mxPoint x="769" y="908" as="sourcePoint" />
            <Array as="points">
              <mxPoint x="799" y="938" />
            </Array>
            <mxPoint x="774" y="938" as="targetPoint" />
          </mxGeometry>
        </mxCell>
        <mxCell id="QTBJoDsRQrFREH0yK5H--53" value="" style="html=1;points=[[0,0,0,0,5],[0,1,0,0,-5],[1,0,0,0,5],[1,1,0,0,-5]];perimeter=orthogonalPerimeter;outlineConnect=0;targetShapes=umlLifeline;portConstraint=eastwest;newEdgeStyle={&quot;curved&quot;:0,&quot;rounded&quot;:0};" vertex="1" parent="1">
          <mxGeometry x="765" y="610" width="10" height="390" as="geometry" />
        </mxCell>
        <mxCell id="QTBJoDsRQrFREH0yK5H--57" value="getRepositoryCreationDate()" style="html=1;verticalAlign=bottom;endArrow=block;curved=0;rounded=0;entryX=0;entryY=0;entryDx=0;entryDy=5;" edge="1" target="QTBJoDsRQrFREH0yK5H--56" parent="1" source="QTBJoDsRQrFREH0yK5H--50">
          <mxGeometry x="0.0741" y="5" relative="1" as="geometry">
            <mxPoint x="1095" y="635" as="sourcePoint" />
            <mxPoint as="offset" />
          </mxGeometry>
        </mxCell>
        <mxCell id="QTBJoDsRQrFREH0yK5H--58" value="Repository Creation Date" style="html=1;verticalAlign=bottom;endArrow=open;dashed=1;endSize=8;curved=0;rounded=0;exitX=0;exitY=1;exitDx=0;exitDy=-5;" edge="1" source="QTBJoDsRQrFREH0yK5H--56" parent="1" target="QTBJoDsRQrFREH0yK5H--50">
          <mxGeometry x="-0.0741" y="15" relative="1" as="geometry">
            <mxPoint x="1095" y="645" as="targetPoint" />
            <mxPoint as="offset" />
          </mxGeometry>
        </mxCell>
        <mxCell id="QTBJoDsRQrFREH0yK5H--68" value="" style="html=1;points=[[0,0,0,0,5],[0,1,0,0,-5],[1,0,0,0,5],[1,1,0,0,-5]];perimeter=orthogonalPerimeter;outlineConnect=0;targetShapes=umlLifeline;portConstraint=eastwest;newEdgeStyle={&quot;curved&quot;:0,&quot;rounded&quot;:0};" vertex="1" parent="1">
          <mxGeometry x="1165" y="670" width="10" height="20" as="geometry" />
        </mxCell>
        <mxCell id="QTBJoDsRQrFREH0yK5H--69" value="getRepositoryFileNames()" style="html=1;verticalAlign=bottom;endArrow=block;curved=0;rounded=0;entryX=0;entryY=0;entryDx=0;entryDy=5;" edge="1" target="QTBJoDsRQrFREH0yK5H--68" parent="1" source="QTBJoDsRQrFREH0yK5H--50">
          <mxGeometry relative="1" as="geometry">
            <mxPoint x="1095" y="675" as="sourcePoint" />
          </mxGeometry>
        </mxCell>
        <mxCell id="QTBJoDsRQrFREH0yK5H--70" value="File Names" style="html=1;verticalAlign=bottom;endArrow=open;dashed=1;endSize=8;curved=0;rounded=0;exitX=0;exitY=1;exitDx=0;exitDy=-5;" edge="1" source="QTBJoDsRQrFREH0yK5H--68" parent="1" target="QTBJoDsRQrFREH0yK5H--50">
          <mxGeometry y="15" relative="1" as="geometry">
            <mxPoint x="1095" y="745" as="targetPoint" />
            <mxPoint as="offset" />
          </mxGeometry>
        </mxCell>
        <mxCell id="QTBJoDsRQrFREH0yK5H--71" value="" style="html=1;points=[[0,0,0,0,5],[0,1,0,0,-5],[1,0,0,0,5],[1,1,0,0,-5]];perimeter=orthogonalPerimeter;outlineConnect=0;targetShapes=umlLifeline;portConstraint=eastwest;newEdgeStyle={&quot;curved&quot;:0,&quot;rounded&quot;:0};" vertex="1" parent="1">
          <mxGeometry x="1165" y="710" width="10" height="20" as="geometry" />
        </mxCell>
        <mxCell id="QTBJoDsRQrFREH0yK5H--72" value="getRepositoryCommitCount()" style="html=1;verticalAlign=bottom;endArrow=block;curved=0;rounded=0;entryX=0;entryY=0;entryDx=0;entryDy=5;" edge="1" target="QTBJoDsRQrFREH0yK5H--71" parent="1" source="QTBJoDsRQrFREH0yK5H--50">
          <mxGeometry relative="1" as="geometry">
            <mxPoint x="1095" y="715" as="sourcePoint" />
          </mxGeometry>
        </mxCell>
        <mxCell id="QTBJoDsRQrFREH0yK5H--73" value="Commit Count" style="html=1;verticalAlign=bottom;endArrow=open;dashed=1;endSize=8;curved=0;rounded=0;exitX=0;exitY=1;exitDx=0;exitDy=-5;" edge="1" source="QTBJoDsRQrFREH0yK5H--71" parent="1" target="QTBJoDsRQrFREH0yK5H--50">
          <mxGeometry y="15" relative="1" as="geometry">
            <mxPoint x="1095" y="785" as="targetPoint" />
            <mxPoint as="offset" />
          </mxGeometry>
        </mxCell>
        <mxCell id="QTBJoDsRQrFREH0yK5H--74" value="" style="html=1;points=[[0,0,0,0,5],[0,1,0,0,-5],[1,0,0,0,5],[1,1,0,0,-5]];perimeter=orthogonalPerimeter;outlineConnect=0;targetShapes=umlLifeline;portConstraint=eastwest;newEdgeStyle={&quot;curved&quot;:0,&quot;rounded&quot;:0};" vertex="1" parent="1">
          <mxGeometry x="1165" y="750" width="10" height="20" as="geometry" />
        </mxCell>
        <mxCell id="QTBJoDsRQrFREH0yK5H--75" value="getRepositoryAvgDurationBetweenCommits()" style="html=1;verticalAlign=bottom;endArrow=block;curved=0;rounded=0;entryX=0;entryY=0;entryDx=0;entryDy=5;" edge="1" target="QTBJoDsRQrFREH0yK5H--74" parent="1" source="QTBJoDsRQrFREH0yK5H--50">
          <mxGeometry relative="1" as="geometry">
            <mxPoint x="1095" y="755" as="sourcePoint" />
          </mxGeometry>
        </mxCell>
        <mxCell id="QTBJoDsRQrFREH0yK5H--76" value="Duration Between Commits AVG" style="html=1;verticalAlign=bottom;endArrow=open;dashed=1;endSize=8;curved=0;rounded=0;exitX=0;exitY=1;exitDx=0;exitDy=-5;" edge="1" source="QTBJoDsRQrFREH0yK5H--74" parent="1" target="QTBJoDsRQrFREH0yK5H--50">
          <mxGeometry y="15" relative="1" as="geometry">
            <mxPoint x="1095" y="825" as="targetPoint" />
            <mxPoint as="offset" />
          </mxGeometry>
        </mxCell>
        <mxCell id="QTBJoDsRQrFREH0yK5H--77" value="" style="html=1;points=[[0,0,0,0,5],[0,1,0,0,-5],[1,0,0,0,5],[1,1,0,0,-5]];perimeter=orthogonalPerimeter;outlineConnect=0;targetShapes=umlLifeline;portConstraint=eastwest;newEdgeStyle={&quot;curved&quot;:0,&quot;rounded&quot;:0};" vertex="1" parent="1">
          <mxGeometry x="1165" y="790" width="10" height="20" as="geometry" />
        </mxCell>
        <mxCell id="QTBJoDsRQrFREH0yK5H--78" value="getRepositoryFileCount()" style="html=1;verticalAlign=bottom;endArrow=block;curved=0;rounded=0;entryX=0;entryY=0;entryDx=0;entryDy=5;" edge="1" target="QTBJoDsRQrFREH0yK5H--77" parent="1" source="QTBJoDsRQrFREH0yK5H--50">
          <mxGeometry relative="1" as="geometry">
            <mxPoint x="1095" y="795" as="sourcePoint" />
          </mxGeometry>
        </mxCell>
        <mxCell id="QTBJoDsRQrFREH0yK5H--79" value="File Count" style="html=1;verticalAlign=bottom;endArrow=open;dashed=1;endSize=8;curved=0;rounded=0;exitX=0;exitY=1;exitDx=0;exitDy=-5;" edge="1" source="QTBJoDsRQrFREH0yK5H--77" parent="1" target="QTBJoDsRQrFREH0yK5H--50">
          <mxGeometry x="-0.0741" y="15" relative="1" as="geometry">
            <mxPoint x="1095" y="865" as="targetPoint" />
            <mxPoint as="offset" />
          </mxGeometry>
        </mxCell>
        <mxCell id="QTBJoDsRQrFREH0yK5H--81" value="" style="html=1;points=[[0,0,0,0,5],[0,1,0,0,-5],[1,0,0,0,5],[1,1,0,0,-5]];perimeter=orthogonalPerimeter;outlineConnect=0;targetShapes=umlLifeline;portConstraint=eastwest;newEdgeStyle={&quot;curved&quot;:0,&quot;rounded&quot;:0};" vertex="1" parent="1">
          <mxGeometry x="1006" y="950" width="10" height="40" as="geometry" />
        </mxCell>
        <mxCell id="QTBJoDsRQrFREH0yK5H--82" value="Save Analytics" style="html=1;verticalAlign=bottom;endArrow=block;curved=0;rounded=0;entryX=0;entryY=0;entryDx=0;entryDy=5;" edge="1" target="QTBJoDsRQrFREH0yK5H--81" parent="1" source="QTBJoDsRQrFREH0yK5H--53">
          <mxGeometry relative="1" as="geometry">
            <mxPoint x="936" y="955" as="sourcePoint" />
          </mxGeometry>
        </mxCell>
        <mxCell id="QTBJoDsRQrFREH0yK5H--83" value="return" style="html=1;verticalAlign=bottom;endArrow=open;dashed=1;endSize=8;curved=0;rounded=0;exitX=0;exitY=1;exitDx=0;exitDy=-5;" edge="1" source="QTBJoDsRQrFREH0yK5H--81" parent="1" target="QTBJoDsRQrFREH0yK5H--53">
          <mxGeometry relative="1" as="geometry">
            <mxPoint x="936" y="1025" as="targetPoint" />
          </mxGeometry>
        </mxCell>
      </root>
    </mxGraphModel>
  </diagram>
  <diagram id="XfHaazrdKLuv2fHmYPAg" name="uc2">
    <mxGraphModel dx="1388" dy="872" grid="1" gridSize="10" guides="1" tooltips="1" connect="1" arrows="1" fold="1" page="1" pageScale="1" pageWidth="1654" pageHeight="1169" math="0" shadow="0">
      <root>
        <mxCell id="0" />
        <mxCell id="1" parent="0" />
        <mxCell id="i9ChZknbs_JfpDJppsz0-4" value="Awareness Agent" style="shape=umlLifeline;perimeter=lifelinePerimeter;whiteSpace=wrap;html=1;container=1;dropTarget=0;collapsible=0;recursiveResize=0;outlineConnect=0;portConstraint=eastwest;newEdgeStyle={&quot;curved&quot;:0,&quot;rounded&quot;:0};participant=umlActor;size=40;movableLabel=1;" vertex="1" parent="1">
          <mxGeometry x="50" y="160" width="20" height="230" as="geometry">
            <mxPoint y="-40" as="offset" />
          </mxGeometry>
        </mxCell>
        <mxCell id="i9ChZknbs_JfpDJppsz0-5" value="" style="html=1;points=[[0,0,0,0,5],[0,1,0,0,-5],[1,0,0,0,5],[1,1,0,0,-5]];perimeter=orthogonalPerimeter;outlineConnect=0;targetShapes=umlLifeline;portConstraint=eastwest;newEdgeStyle={&quot;curved&quot;:0,&quot;rounded&quot;:0};" vertex="1" parent="i9ChZknbs_JfpDJppsz0-4">
          <mxGeometry x="5" y="60" width="10" height="140" as="geometry" />
        </mxCell>
        <mxCell id="i9ChZknbs_JfpDJppsz0-6" value=":Analytics Controller" style="shape=umlLifeline;perimeter=lifelinePerimeter;whiteSpace=wrap;html=1;container=1;dropTarget=0;collapsible=0;recursiveResize=0;outlineConnect=0;portConstraint=eastwest;newEdgeStyle={&quot;curved&quot;:0,&quot;rounded&quot;:0};" vertex="1" parent="1">
          <mxGeometry x="345" y="160" width="100" height="230" as="geometry" />
        </mxCell>
        <mxCell id="i9ChZknbs_JfpDJppsz0-7" value="" style="html=1;points=[[0,0,0,0,5],[0,1,0,0,-5],[1,0,0,0,5],[1,1,0,0,-5]];perimeter=orthogonalPerimeter;outlineConnect=0;targetShapes=umlLifeline;portConstraint=eastwest;newEdgeStyle={&quot;curved&quot;:0,&quot;rounded&quot;:0};" vertex="1" parent="i9ChZknbs_JfpDJppsz0-6">
          <mxGeometry x="45" y="92" width="10" height="78" as="geometry" />
        </mxCell>
        <mxCell id="i9ChZknbs_JfpDJppsz0-10" value=":Analytics Service" style="shape=umlLifeline;perimeter=lifelinePerimeter;whiteSpace=wrap;html=1;container=1;dropTarget=0;collapsible=0;recursiveResize=0;outlineConnect=0;portConstraint=eastwest;newEdgeStyle={&quot;curved&quot;:0,&quot;rounded&quot;:0};" vertex="1" parent="1">
          <mxGeometry x="465" y="160" width="100" height="230" as="geometry" />
        </mxCell>
        <mxCell id="i9ChZknbs_JfpDJppsz0-11" value="" style="html=1;points=[[0,0,0,0,5],[0,1,0,0,-5],[1,0,0,0,5],[1,1,0,0,-5]];perimeter=orthogonalPerimeter;outlineConnect=0;targetShapes=umlLifeline;portConstraint=eastwest;newEdgeStyle={&quot;curved&quot;:0,&quot;rounded&quot;:0};" vertex="1" parent="i9ChZknbs_JfpDJppsz0-10">
          <mxGeometry x="45" y="107" width="10" height="50" as="geometry" />
        </mxCell>
        <mxCell id="i9ChZknbs_JfpDJppsz0-13" value=":Database" style="shape=umlLifeline;perimeter=lifelinePerimeter;whiteSpace=wrap;html=1;container=1;dropTarget=0;collapsible=0;recursiveResize=0;outlineConnect=0;portConstraint=eastwest;newEdgeStyle={&quot;curved&quot;:0,&quot;rounded&quot;:0};" vertex="1" parent="1">
          <mxGeometry x="585" y="160" width="100" height="230" as="geometry" />
        </mxCell>
        <mxCell id="i9ChZknbs_JfpDJppsz0-14" value="" style="html=1;points=[[0,0,0,0,5],[0,1,0,0,-5],[1,0,0,0,5],[1,1,0,0,-5]];perimeter=orthogonalPerimeter;outlineConnect=0;targetShapes=umlLifeline;portConstraint=eastwest;newEdgeStyle={&quot;curved&quot;:0,&quot;rounded&quot;:0};" vertex="1" parent="i9ChZknbs_JfpDJppsz0-13">
          <mxGeometry x="45" y="117" width="10" height="30" as="geometry" />
        </mxCell>
        <mxCell id="i9ChZknbs_JfpDJppsz0-18" value=":Inven!RA" style="shape=umlLifeline;perimeter=lifelinePerimeter;whiteSpace=wrap;html=1;container=1;dropTarget=0;collapsible=0;recursiveResize=0;outlineConnect=0;portConstraint=eastwest;newEdgeStyle={&quot;curved&quot;:0,&quot;rounded&quot;:0};" vertex="1" parent="1">
          <mxGeometry x="185" y="160" width="100" height="230" as="geometry" />
        </mxCell>
        <mxCell id="i9ChZknbs_JfpDJppsz0-19" value="" style="html=1;points=[[0,0,0,0,5],[0,1,0,0,-5],[1,0,0,0,5],[1,1,0,0,-5]];perimeter=orthogonalPerimeter;outlineConnect=0;targetShapes=umlLifeline;portConstraint=eastwest;newEdgeStyle={&quot;curved&quot;:0,&quot;rounded&quot;:0};" vertex="1" parent="i9ChZknbs_JfpDJppsz0-18">
          <mxGeometry x="45" y="90" width="10" height="90" as="geometry" />
        </mxCell>
        <mxCell id="i9ChZknbs_JfpDJppsz0-20" value="Provide Analytics" style="html=1;verticalAlign=bottom;endArrow=block;curved=0;rounded=0;entryX=0;entryY=0;entryDx=0;entryDy=5;" edge="1" parent="1">
          <mxGeometry x="0.0049" relative="1" as="geometry">
            <mxPoint x="240" y="262" as="sourcePoint" />
            <mxPoint x="390" y="262" as="targetPoint" />
            <mxPoint as="offset" />
          </mxGeometry>
        </mxCell>
        <mxCell id="i9ChZknbs_JfpDJppsz0-21" value="Analytics" style="html=1;verticalAlign=bottom;endArrow=open;dashed=1;endSize=8;curved=0;rounded=0;exitX=0;exitY=1;exitDx=0;exitDy=-5;" edge="1" parent="1" source="i9ChZknbs_JfpDJppsz0-7" target="i9ChZknbs_JfpDJppsz0-19">
          <mxGeometry relative="1" as="geometry">
            <mxPoint x="315" y="295" as="targetPoint" />
          </mxGeometry>
        </mxCell>
        <mxCell id="i9ChZknbs_JfpDJppsz0-22" value="Goal Status" style="html=1;verticalAlign=bottom;endArrow=block;curved=0;rounded=0;entryX=0;entryY=0;entryDx=0;entryDy=5;" edge="1" parent="1" source="i9ChZknbs_JfpDJppsz0-5" target="i9ChZknbs_JfpDJppsz0-19">
          <mxGeometry relative="1" as="geometry">
            <mxPoint x="80" y="255" as="sourcePoint" />
          </mxGeometry>
        </mxCell>
        <mxCell id="i9ChZknbs_JfpDJppsz0-23" value="Goal Status" style="html=1;verticalAlign=bottom;endArrow=open;dashed=1;endSize=8;curved=0;rounded=0;exitX=0;exitY=1;exitDx=0;exitDy=-5;" edge="1" parent="1" source="i9ChZknbs_JfpDJppsz0-19" target="i9ChZknbs_JfpDJppsz0-5">
          <mxGeometry relative="1" as="geometry">
            <mxPoint x="80" y="335" as="targetPoint" />
          </mxGeometry>
        </mxCell>
        <mxCell id="i9ChZknbs_JfpDJppsz0-24" value="Select all analytics" style="html=1;verticalAlign=bottom;endArrow=block;curved=0;rounded=0;entryX=0;entryY=0;entryDx=0;entryDy=5;" edge="1" parent="1" source="i9ChZknbs_JfpDJppsz0-11" target="i9ChZknbs_JfpDJppsz0-14">
          <mxGeometry x="-0.0028" y="2" relative="1" as="geometry">
            <mxPoint x="560" y="282" as="sourcePoint" />
            <mxPoint as="offset" />
          </mxGeometry>
        </mxCell>
        <mxCell id="i9ChZknbs_JfpDJppsz0-25" value="Analytics" style="html=1;verticalAlign=bottom;endArrow=open;dashed=1;endSize=8;curved=0;rounded=0;exitX=0;exitY=1;exitDx=0;exitDy=-5;" edge="1" parent="1" source="i9ChZknbs_JfpDJppsz0-14" target="i9ChZknbs_JfpDJppsz0-11">
          <mxGeometry x="0.0028" y="-2" relative="1" as="geometry">
            <mxPoint x="560" y="352" as="targetPoint" />
            <mxPoint as="offset" />
          </mxGeometry>
        </mxCell>
        <mxCell id="i9ChZknbs_JfpDJppsz0-26" value="getAnalytics()" style="html=1;verticalAlign=bottom;endArrow=block;curved=0;rounded=0;entryX=0;entryY=0;entryDx=0;entryDy=5;" edge="1" parent="1" source="i9ChZknbs_JfpDJppsz0-7" target="i9ChZknbs_JfpDJppsz0-11">
          <mxGeometry relative="1" as="geometry">
            <mxPoint x="440" y="272" as="sourcePoint" />
          </mxGeometry>
        </mxCell>
        <mxCell id="i9ChZknbs_JfpDJppsz0-27" value="Analytics" style="html=1;verticalAlign=bottom;endArrow=open;dashed=1;endSize=8;curved=0;rounded=0;exitX=0;exitY=1;exitDx=0;exitDy=-5;" edge="1" parent="1" source="i9ChZknbs_JfpDJppsz0-11" target="i9ChZknbs_JfpDJppsz0-7">
          <mxGeometry relative="1" as="geometry">
            <mxPoint x="440" y="342" as="targetPoint" />
          </mxGeometry>
        </mxCell>
      </root>
    </mxGraphModel>
  </diagram>
</mxfile>
